<svg xmlns="http://www.w3.org/2000/svg" version="1.1" xmlns:xlink="http://www.w3.org/1999/xlink" xmlns:svgjs="http://svgjs.dev/svgjs" width="1280" height="680" preserveAspectRatio="none" viewBox="0 0 1280 680"><g mask="url(&quot;#SvgjsMask1149&quot;)" fill="none"><rect width="1280" height="680" x="0" y="0" fill="rgba(1, 47, 107, 1)"></rect><path d="M0,517.048C94.685,507.922,155.165,417.073,238.121,370.523C328.126,320.018,441.963,311.313,507.994,231.993C582.116,142.954,627.337,26.404,620.88,-89.269C614.191,-209.099,564.83,-332.849,472.204,-409.167C383.327,-482.396,256.167,-468.308,142.054,-483.791C45.324,-496.915,-49.402,-513.927,-144.72,-492.87C-245.012,-470.715,-347.028,-436.571,-416.042,-360.503C-485.727,-283.696,-514.756,-178.611,-523.587,-75.28C-532.091,24.228,-510.615,123.513,-464.998,212.358C-420.748,298.541,-350.601,366.359,-269.568,419.456C-187.983,472.914,-97.089,526.406,0,517.048" fill="#011f46"></path><path d="M1280 1026.768C1348.856 1027.125 1422.65 1029.213 1478.936 989.55 1534.506 950.3910000000001 1549.4769999999999 877.793 1578.589 816.361 1608.165 753.948 1668.199 693.537 1650.897 626.673 1633.434 559.188 1545.748 541.506 1495.079 493.63300000000004 1450.997 451.983 1428.777 387.278 1372.807 363.927 1314.655 339.666 1246.91 344.048 1187.613 365.358 1130.079 386.034 1090.29 434.735 1049.373 480.15999999999997 1007.679 526.447 959.066 570.99 947.283 632.162 935.2860000000001 694.446 962.38 755.47 984.922 814.758 1008.903 877.832 1027.584 948.1220000000001 1082.385 987.496 1138.054 1027.4940000000001 1211.453 1026.413 1280 1026.768" fill="#013f90"></path></g><defs><mask id="SvgjsMask1149"><rect width="1280" height="680" fill="#ffffff"></rect></mask></defs></svg>